<?xml version="1.0" encoding="UTF-8" standalone="no"?>
<svg width="45px" height="25px" viewBox="0 0 45 25" version="1.1" xmlns="http://www.w3.org/2000/svg" xmlns:xlink="http://www.w3.org/1999/xlink" xmlns:sketch="http://www.bohemiancoding.com/sketch/ns">
    <title>Slice 1</title>
    <description>Created with Sketch (http://www.bohemiancoding.com/sketch)</description>
    <defs></defs>
    <g id="Page 1" fill="#D8D8D8" fill-rule="evenodd">
        <path d="M2,20.992 L2,6.46 L7.348,6.46 L7.348,8.308 L7.404,8.308 C8.44,6.852 9.924,6.096 12.136,6.096 C14.74,6.096 17.12,7.692 17.12,11.024 L17.12,20.992 L11.576,20.992 L11.576,13.376 C11.576,11.696 11.38,10.52 9.756,10.52 C8.804,10.52 7.544,10.996 7.544,13.32 L7.544,20.992 Z M19.256,20.992 L19.256,6.46 L24.8,6.46 L24.8,20.992 Z M24.8,1 L24.8,4.892 L19.256,4.892 L19.256,1 Z M37.184,13.712 C37.184,12.004 36.736,10.128 34.748,10.128 C32.76,10.128 32.312,12.004 32.312,13.712 C32.312,15.448 32.76,17.324 34.748,17.324 C36.736,17.324 37.184,15.448 37.184,13.712 Z M26.964,20.992 L26.964,1 L32.508,1 L32.508,8.056 L32.564,8.056 C33.404,6.824 34.888,6.096 36.54,6.096 C41.412,6.096 42.728,10.24 42.728,13.656 C42.728,17.296 40.74,21.356 36.624,21.356 C33.908,21.356 33.068,20.32 32.368,19.396 L32.312,19.396 L32.312,20.992 Z M26.964,20.992" id="nib" fill="#FFFFFF"></path>
    </g>
</svg>